<svg width="815" height="197" viewBox="0 0 815 197" fill="none" xmlns="http://www.w3.org/2000/svg">
<path d="M400.27 37.1102L407.561 2.90332H299.339L290.656 43.8414H340.557L263.461 161.586L257.009 191.872H366.912L380.925 150.934H329.624L400.27 37.1102Z" fill="white"/>
<path d="M525.315 37.1102L532.607 2.90332H424.384L415.693 43.8414H465.593L388.497 161.586L382.046 191.872H491.949L505.971 150.934H454.661L525.315 37.1102Z" fill="white"/>
<path d="M579.146 115.047H625.966L634.377 74.6781H587.558L594.279 43.2719H643.349L652.041 2.90332H548.86L508.772 191.872H614.753L627.366 151.774H571.294L579.146 115.047Z" fill="white"/>
<path d="M735.869 2.90332H672.225L632.137 191.872H685.408L701.391 116.456H701.951C713.444 116.456 716.254 120.097 713.164 134.4C706.992 163.836 702.791 186.831 703.071 191.872H756.342C756.622 186.261 761.673 161.036 765.874 141.691C770.636 119.257 766.714 106.084 752.701 98.5127C768.124 94.5916 779.897 82.5296 784.378 59.8246C791.38 25.0482 775.957 2.90332 735.869 2.90332ZM729.978 60.6555C726.617 77.1988 722.406 79.9995 713.154 79.9995H709.233L717.925 39.0614H721.006C730.818 39.0708 733.058 44.1215 729.978 60.6555Z" fill="white"/>
<path d="M229.533 2.90332L199.817 141.962C198.137 150.934 195.896 156.545 189.165 156.545C182.434 156.545 181.593 150.654 183.274 141.962L212.99 2.90332H158.319L154.071 22.7702C158.225 31.8821 158.73 43.2066 156.312 55.7634C153.828 68.7311 148.413 78.4404 140.739 85.1156L138.667 94.797C139.684 95.0771 140.674 95.4692 141.598 96.048C142.494 96.6082 143.372 97.215 144.24 97.8686C146.042 99.2129 147.732 100.735 149.282 102.368C150.943 104.133 152.446 106.047 153.754 108.063C155.173 110.248 156.358 112.563 157.32 114.991C158.365 117.633 159.15 120.387 159.663 123.178C160.242 126.315 160.485 129.499 160.466 132.692C160.438 136.323 160.055 139.964 159.392 143.54C156.153 161.222 149.776 173.9 139.694 182.443C149.59 191.545 165.451 195.233 185.533 195.233C226.751 195.233 246.936 180.37 256.187 136.921L284.765 2.90332H229.533Z" fill="white"/>
<path d="M68.8992 94.069H106.85C123.402 89.2516 135.091 76.7695 139.124 55.7636C145.258 23.9374 132.701 0 89.2049 0H83.9394L68.8992 94.069Z" fill="white"/>
<path d="M45.5781 196.672L56.7065 117.513H17.0008L66.7707 29.4652L83.8088 0.000976562H26.4207L6.43247 94.182H21.7527C21.0059 97.6549 0 196.672 0 196.672H45.5781Z" fill="white"/>
<path d="M142.476 123.179C141.962 120.387 141.178 117.633 140.132 114.991C139.171 112.573 137.985 110.258 136.566 108.064C135.259 106.038 133.756 104.124 132.094 102.369C130.554 100.735 128.864 99.2133 127.053 97.8689C126.184 97.2247 125.307 96.6179 124.411 96.0484C122.273 94.704 119.817 94.3119 117.334 94.2186C116.839 94.1905 116.326 94.1905 115.831 94.1812H113.432C112.302 94.1812 111.191 94.1812 110.061 94.1719H107.064L45.886 196.681H71.2331C113.572 196.681 135.184 181.79 142.196 143.55C142.858 139.974 143.241 136.333 143.269 132.701C143.297 129.499 143.054 126.325 142.476 123.179Z" fill="white"/>
<path d="M786.003 7.39473H791.166V20.8945H793.266V7.39473H798.429V5.57422H786.003V7.39473Z" fill="white"/>
<path d="M812.041 5.57422L807.662 18.5325L803.256 5.57422H800.277V20.8945H802.257V11.848C802.257 11.4839 802.247 10.9237 802.229 10.1488C802.21 9.38328 802.201 8.80446 802.201 8.43102V7.96422L806.626 20.8945H808.68L813.058 7.97356C813.058 8.80446 813.049 9.57934 813.04 10.2982C813.021 11.0264 813.021 11.5399 813.021 11.8573V20.9038H815V5.57422H812.041Z" fill="white"/>
</svg>
