<svg xmlns="http://www.w3.org/2000/svg" viewBox="0 0 184.5 210.66"><defs><style>.cls-1{fill:#e7cc3c;}.cls-2{fill:#fff;}</style></defs><g id="Layer_2" data-name="Layer 2"><g id="Layer_1-2" data-name="Layer 1"><path class="cls-1" d="M114.45,100.76H73.79L89.89.05l-.2.07L71.51,31.56,18.2,125.87H60.73L48.82,210.66h.33l65.53-109.8Z"/><path class="cls-2" d="M149,59.73c-4.32,22.5-16.84,35.87-34.57,41H73.79L89.9,0h5.64C142.13,0,155.58,25.64,149,59.73Z"/><path class="cls-2" d="M71.51,31.56,18.2,125.87H60.73L48.82,210.66H0S22.5,104.59,23.3,100.88H6.88L28.29,0H89.76Z"/><path class="cls-2" d="M153.45,142.13a66.71,66.71,0,0,1-1.15,11.62c-7.5,41-30.65,56.91-76,56.91H49.15l65.53-109.8h3.21c1.21,0,2.41,0,3.61,0h2.57c.53,0,1.08,0,1.61,0a14.92,14.92,0,0,1,7.57,2c1,.61,1.91,1.26,2.84,2a41.07,41.07,0,0,1,5.39,4.82,42.38,42.38,0,0,1,8.61,13.52,47,47,0,0,1,2.51,8.77A53.52,53.52,0,0,1,153.45,142.13Z"/><polygon class="cls-2" points="153.45 1.96 158.98 1.96 158.98 16.41 161.23 16.41 161.23 1.96 166.76 1.96 166.76 0 153.45 0 153.45 1.96"/><path class="cls-2" d="M181.34,0l-4.68,13.88L171.94,0h-3.19V16.41h2.12V6.73c0-.39,0-1,0-1.82s0-1.43,0-1.84v-.5l4.73,13.84h2.2l4.69-13.84q0,1.34,0,2.49c0,.78,0,1.33,0,1.67v9.68h2.12V0Z"/></g></g></svg>